<?xml version="1.0" standalone="no"?>
<!DOCTYPE svg PUBLIC "-//W3C//DTD SVG 20010904//EN"
 "http://www.w3.org/TR/2001/REC-SVG-20010904/DTD/svg10.dtd">
<svg version="1.0" xmlns="http://www.w3.org/2000/svg"
 width="512.000000pt" height="512.000000pt" viewBox="0 0 512.000000 512.000000"
 preserveAspectRatio="xMidYMid meet">

<g transform="translate(0.000000,512.000000) scale(0.100000,-0.100000)"
fill="#F0EDCC" stroke="none">
<path d="M2784 4293 c7 -21 396 -1730 396 -1738 0 -3 -144 -5 -320 -5 l-320 0
0 -1247 c0 -685 2 -1244 4 -1242 2 2 46 167 96 366 l92 361 57 7 c305 36 639
179 887 379 108 87 253 241 337 357 80 111 194 337 236 467 97 295 114 638 47
932 -103 454 -379 851 -766 1102 -200 130 -459 232 -670 263 -25 3 -53 9 -63
12 -15 4 -18 1 -13 -14z"/>
<path d="M1385 4255 c-203 -47 -420 -138 -588 -248 -609 -397 -908 -1121 -755
-1827 139 -646 640 -1156 1293 -1318 170 -42 172 -41 55 36 -144 94 -237 171
-360 298 -344 355 -526 783 -547 1284 -28 700 329 1360 944 1746 48 30 80 54
72 53 -8 0 -59 -11 -114 -24z"/>
</g>
</svg>
